Coordinates
version=1
nRows=12
nColumns=24
inDegrees=yes

Units are S.I. units (second, meters, Newtons, ...)
Angles are in degrees.

endheader
time	pelvis_tilt	pelvis_list	pelvis_rotation	pelvis_tx	pelvis_ty	pelvis_tz	hip_flexion_r	hip_adduction_r	hip_rotation_r	knee_angle_r	ankle_angle_r	subtalar_angle_r	mtp_angle_r	hip_flexion_l	hip_adduction_l	hip_rotation_l	knee_angle_l	ankle_angle_l	subtalar_angle_l	mtp_angle_l	lumbar_extension	lumbar_bending	lumbar_rotation
      0.85816667	     -0.79620096	     -2.66351620	     -0.18902804	     -0.41849849	      1.00325149	      0.34037981	     11.30281591	      5.73425548	     -0.06144511	    -18.53602956	     10.77126021	     -8.05005569	      2.63415846	     14.96444629	     -3.52547077	     -3.25217486	    -71.05735492	     -7.36052520	    -10.69919405	      3.29494774	    -11.29795937	     11.33862557	     -1.08697160
      0.86233333	     -0.74678001	     -2.50930844	     -0.22604506	     -0.41361636	      1.00424826	      0.34077066	     10.74211581	      5.60017355	      0.01485785	    -18.13097350	     10.80151394	     -8.01140936	      2.63651873	     15.48039236	     -3.43042948	     -3.38901428	    -70.94017369	     -6.82046474	    -10.97340932	      3.26227615	    -11.41761533	     11.10451927	     -0.89178547
      0.86650000	     -0.66154956	     -2.36231951	     -0.27353835	     -0.40870813	      1.00527103	      0.34117248	     10.12524901	      5.47553687	      0.10860608	    -17.68807701	     10.83959240	     -7.98503215	      2.63902006	     15.93929720	     -3.34959396	     -3.54103302	    -70.76338416	     -6.30499763	    -11.20570556	      3.22067679	    -11.57184917	     10.86742966	     -0.61862444
      0.87066667	     -0.56835616	     -2.18937442	     -0.32631424	     -0.40378676	      1.00629510	      0.34157836	      9.50084212	      5.32209476	      0.20763795	    -17.25037860	     10.89011085	     -7.95712493	      2.64124596	     16.37030957	     -3.23876828	     -3.70060064	    -70.51663667	     -5.82220620	    -11.40640774	      3.17202827	    -11.73378825	     10.59939151	     -0.34898129
      0.87483333	     -0.50913674	     -2.01528703	     -0.38817593	     -0.39888058	      1.00722850	      0.34197620	      8.92195990	      5.16536147	      0.30532041	    -16.82641931	     10.93446591	     -7.92453892	      2.64310300	     16.83009003	     -3.12443465	     -3.86439504	    -70.22727917	     -5.34168452	    -11.60129146	      3.12014161	    -11.85203801	     10.33310011	     -0.08561287
      0.87900000	     -0.41750688	     -1.84232323	     -0.44470642	     -0.39395985	      1.00817470	      0.34236625	      8.29912312	      5.00713773	      0.40030493	    -16.38493496	     10.99940054	     -7.89036670	      2.64495478	     17.24228023	     -3.01161511	     -4.02490283	    -69.88688117	     -4.89109290	    -11.75345388	      3.05151754	    -12.00526340	     10.06663464	      0.20157133
      0.88316667	     -0.33083076	     -1.67023369	     -0.50716956	     -0.38904703	      1.00907808	      0.34275015	      7.68540244	      4.84809933	      0.49556786	    -15.94682423	     11.04249921	     -7.85935751	      2.64543406	     17.64589018	     -2.89778023	     -4.18702036	    -69.49621725	     -4.41810437	    -11.88874618	      2.97744621	    -12.14622433	      9.80312878	      0.46287965
      0.88733333	     -0.24818236	     -1.49646518	     -0.57087104	     -0.38413065	      1.00993355	      0.34312206	      7.07952814	      4.68388747	      0.58020080	    -15.51503681	     11.09479099	     -7.82552953	      2.64528738	     18.04160217	     -2.77973032	     -4.34780207	    -69.05693195	     -3.96052647	    -12.00642951	      2.88705002	    -12.27696585	      9.54359738	      0.72002210
      0.89150000	     -0.19787222	     -1.31661508	     -0.63257267	     -0.37922660	      1.01069779	      0.34348210	      6.51783201	      4.51067011	      0.66056764	    -15.10065931	     11.15026764	     -7.78317162	      2.64436794	     18.46337464	     -2.65038603	     -4.49963340	    -68.57416969	     -3.50658941	    -12.09236465	      2.80077458	    -12.37670871	      9.27314930	      0.94562220
      0.89566667	     -0.15302792	     -1.13786168	     -0.69584734	     -0.37432775	      1.01141640	      0.34381872	      5.97334708	      4.33322436	      0.71555921	    -14.70565516	     11.16511804	     -7.72864433	      2.64261177	     18.87856550	     -2.51964977	     -4.65392837	    -68.04502873	     -3.03586250	    -12.19532020	      2.76427093	    -12.44761184	      9.02120812	      1.05832739
      0.89983333	     -0.04779875	     -0.96397732	     -0.75178722	     -0.36943552	      1.01217355	      0.34415562	      5.34259463	      4.16327863	      0.80782571	    -14.26713972	     11.25537268	     -7.69287674	      2.64009908	     19.21352175	     -2.38787856	     -4.78432948	    -67.46162755	     -2.60721543	    -12.19259535	      2.67644245	    -12.63226360	      8.74977213	      1.36105728
      0.90400000	      0.02127286	     -0.78773903	     -0.81042950	     -0.36454937	      1.01283681	      0.34447078	      4.76696418	      3.98575578	      0.87546217	    -13.85730550	     11.30715787	     -7.64919002	      2.63618814	     19.57578237	     -2.25078361	     -4.91735697	    -66.83501043	     -2.16448293	    -12.21182658	      2.58272516	    -12.75244581	      8.48604016	      1.57659521
